# xmcd CD database file
#
# Track frame offsets:
#	183
#	51733
#	90808
#	126233
#	165420
#
# Disc length: 2446 seconds
#
# Revision: 26
# Processed by: cddbd v1.5.2PL0 Copyright (c) Steve Scherf et al.
# Submitted via: CDex 1.70
#
DISCID=38098c05
DTITLE=Al Di Meola, John McLaughlin, Paco De Lucia - Friday night in San Francisco
DYEAR=1981
DGENRE=Other
TTITLE0=Paco, Al - A) Mediterranean sundance - B) Rio ancho
TTITLE1=John, Al - Short tales of the Black Forest
TTITLE2=John, Paco - Frevo rasgado
TTITLE3=Paco, John, Al - Fantasia suite
TTITLE4=Paco, John, Al - Guardian angel
EXTD=YEAR: 1981
EXTT0=
EXTT1=
EXTT2=
EXTT3=
EXTT4=
PLAYORDER=
